PathFileType	4	(X/Y/Z)	Patient4_TMGait_0pt2_03_right_01.trc.trc
DataRate	CameraRate	NumFrames	NumMarkers	Units	OrigDataRate	OrigDataStartFrame	OrigNumFrames
44.444444444444	44.444444444444	4	33	mm	44.444444444444	124	       141
Frame#	Time	Sacral			L.Shoulder			Chest			R.Shoulder			Neck			R.ASIS			L.ASIS			R.Thigh.Superior			R.Thigh.Lateral			R.Thigh.Inferior			R.Patella			L.Thigh.Superior			L.Thigh.Lateral			L.Thigh.Inferior			L.Patella			L.Shank.Superior			L.Shank.Lateral			L.Shank.Inferior			R.Shank.Superior			R.Shank.Lateral			R.Shank.Inferior			R.Heel			R.Midfoot.Superior			R.Midfoot.Lateral			R.Toe			L.Heel			L.Midfoot.Lateral			L.Midfoot.Superior			L.Toe			L.Elbow			L.Wrist			R.Elbow			R.Wrist			
		X1	Y1	Z1	X2	Y2	Z2	X3	Y3	Z3	X4	Y4	Z4	X5	Y5	Z5	X6	Y6	Z6	X7	Y7	Z7	X8	Y8	Z8	X9	Y9	Z9	X10	Y10	Z10	X11	Y11	Z11	X12	Y12	Z12	X13	Y13	Z13	X14	Y14	Z14	X15	Y15	Z15	X16	Y16	Z16	X17	Y17	Z17	X18	Y18	Z18	X19	Y19	Z19	X20	Y20	Z20	X21	Y21	Z21	X22	Y22	Z22	X23	Y23	Z23	X24	Y24	Z24	X25	Y25	Z25	X26	Y26	Z26	X27	Y27	Z27	X28	Y28	Z28	X29	Y29	Z29	X30	Y30	Z30	X31	Y31	Z31	X32	Y32	Z32	X33	Y33	Z33	

124	4.617500000000	723.834696193848	997.413526166438	376.375095563240	954.235194214168	1412.088390408738	217.549216010169	999.601773283157	1357.950118556243	406.047158567623	873.841586860150	1450.649534241554	540.184541033759	892.169027021171	1487.589906229071	357.864024277201	924.132348664742	939.654565900279	542.605269101986	966.879636985444	954.852233660787	269.740161176454	996.104520376012	750.894212116094	529.013451864328	927.387241790676	636.136430301949	594.065514701851	1021.946192911687	590.464562235611	528.838045660326	1041.646817769245	507.808307978303	547.580758975321	986.340558383973	734.850898538773	301.821248776274	890.123599063485	621.522154757380	234.980765599106	959.036262026939	540.492390182829	307.048579057187	949.667026888816	469.427472318831	316.357396921280	909.608059789837	400.222500925471	310.040895732904	803.536145271444	299.480549083477	259.165049189289	832.717023084139	184.712492324978	336.685638327868	1020.625287971158	417.808432715251	561.715325061011	953.650968283960	315.437351967611	630.787584327087	1013.480840853773	219.143965693462	586.344142454276	898.384837343033	45.799928703634	577.451879985776	1070.833544159689	103.431063735469	600.922987124886	988.274316950364	38.269974981938	643.238134883652	1192.338431969562	55.715025448826	615.910904587303	685.702553712460	39.606520592649	379.526927214886	761.420933952781	35.278001644200	300.930423659716	845.534379437581	94.926241730314	329.197077827633	973.581619866408	41.230480176550	304.057320802860	1109.571842839458	1109.814712882559	100.791202549734	1363.188831938643	1052.168528410977	134.657593108809	689.726018568501	1159.004964953178	634.788413823948	656.085835785998	897.348447685651	645.781651823328	
125	4.640000000000	725.599949079895	997.092274630753	381.276785340630	953.745899870801	1412.480028432789	222.232671979399	1000.370277246498	1358.180849409657	410.402238117833	875.089912522527	1450.289301969499	545.430305923276	892.272917962400	1487.545769380313	363.081504779593	926.814445591211	939.043053390165	546.411672544832	968.300064909865	954.936667202421	273.566687875886	998.006568937640	748.906955148843	531.567970839573	928.472484974341	634.423708331427	595.756132534511	1022.351566390228	588.599778961489	529.545775932901	1040.864374008097	505.436199355588	547.473582155122	986.364603151395	734.123637672463	305.043532686674	888.735389681045	621.884296473938	237.802554067049	956.633989829801	539.934167748847	309.491041419390	946.646085308484	468.991795597718	318.554100297898	906.340105462708	400.153205517122	311.833261960407	799.772315890740	300.119674576338	260.493767156457	828.620766619568	184.721203125750	337.241133037204	1019.068177008175	415.264065407588	561.585367365350	951.462634418006	313.278580482700	630.757577797577	1009.413353593905	216.394655641130	585.044179641841	891.977435291704	44.347108315867	576.347709080414	1064.788062558867	101.146631699751	598.878732812649	981.910350461154	37.257751229626	642.359682778354	1186.269271980269	53.045404156368	614.393404548286	681.201986712069	39.612253086812	379.501461767999	756.955341367316	35.287670211921	300.992213019884	841.107070414080	94.937575546711	329.253457797691	969.136729268483	41.081093113547	304.052002302228	1105.897695432613	1108.400133712938	103.783996246104	1359.264638751462	1047.683549002312	136.619857715311	692.190565497417	1158.677603743945	642.293150979648	659.102967149745	897.023109874877	654.994996561247	
126	4.662500000000	727.402666669464	997.070782465398	386.541351226733	953.615789602547	1413.065845705723	227.129897920985	1001.437872150613	1358.535852267097	414.965503189863	876.668655699235	1450.128795242685	550.855473926512	892.731867150678	1487.706548143732	368.502391165219	929.577429115571	938.772794632358	550.552807226075	969.635440866274	955.089965800747	277.670546049393	1000.131182963669	747.573146393515	534.301747549260	930.075269728019	633.269270557012	597.884169374196	1023.184395453332	587.298595479931	530.589802573789	1040.604155941465	503.558564659657	547.766013988276	986.012636297053	733.443353896127	308.455120245775	886.831321491458	622.457245634138	240.792797096390	953.682941949486	539.518460079516	312.015098924911	943.069636534877	468.755966975438	320.805723842474	902.634226684644	400.310291846454	313.663082295075	795.647589080282	300.886546829727	261.887740657794	824.381015389753	184.849411942410	337.790419881976	1018.067652091866	413.267615817797	561.830723326253	950.038537503056	311.653068137279	631.279029049931	1006.037671134351	214.242072832881	584.193772922628	886.443537707123	43.267566366583	575.679288338067	1059.476122833625	99.552211333763	597.454908278602	976.393241590534	36.650765323194	641.927339359067	1181.002822511034	51.242742861515	613.455246758675	676.679829481265	39.623373914406	379.480775953723	752.488598896583	35.299319025028	301.059104717316	836.679729792361	94.964596588987	329.300225511422	964.702088191088	40.917311049636	304.040669817308	1101.718231227496	1106.734241364000	106.888941497814	1354.487650408649	1041.468856508799	138.552057667375	694.917828780580	1158.645265555261	650.175855857048	662.554241298191	896.981509941927	664.745005101746	
127	4.685000000000	729.219396770436	997.312468158811	392.209196642242	953.820411910657	1413.785908786033	232.202711951270	1002.789668775641	1358.975144292011	419.698459461698	878.577794908365	1450.152722534757	556.415137521482	893.547124355538	1488.039525735225	374.074662691151	932.392829205355	938.815757269386	555.032015993115	970.840022032154	955.307531425328	282.032198949599	1002.424499192482	746.862466273176	537.250796074212	932.100856800293	632.624825298531	600.458193502699	1024.380418163471	586.506996999671	532.041408298838	1040.805465132876	502.135820216100	548.514655619596	985.285272792230	732.830481361928	312.013222211512	884.427183707183	623.236628638044	243.937642507396	950.267356138945	539.252739213357	314.564569314376	939.044117009892	468.703452014258	323.050873235626	898.571581742687	400.680025138793	315.494174123849	791.207673762467	301.793300082679	263.338802354969	820.021330700157	185.101475222831	338.318111278863	1017.536314009833	411.774334829027	562.471092849787	949.226483167743	310.520336402059	632.298382461303	1003.222980706973	212.651393811219	583.780206975816	881.622152593856	42.568876096542	575.386304511268	1054.773745188197	98.561203320712	596.604215439122	971.563912295046	36.383557708256	641.860412388395	1176.381812127720	50.137321474629	613.007024651381	672.135026854129	39.693038012535	379.463658481523	748.015810901003	35.338558246806	301.128027847342	832.256402650909	95.014046631612	329.331604733304	960.270293934945	40.730879110887	304.020078051011	1096.996264683415	1104.775885992490	110.197353708679	1348.653908818488	1033.449418660249	140.570395093787	697.939979488056	1158.860293374905	658.391535815984	666.580666001142	897.171726466242	674.961790521509	
